<svg xmlns="http://www.w3.org/2000/svg" xmlns:xlink="http://www.w3.org/1999/xlink" version="1.1" enable-background="new 0 0 100 100" xml:space="preserve" width="25" height="14"><rect id="backgroundrect" width="100%" height="100%" x="0" y="0" fill="none" stroke="none" class="" style=""/><g class="currentLayer" style=""><title>Layer 1</title><path d="M23.36500183904313,5.542779260901347 H5.698238955862138 l4.723570511560436,-3.4573847370621467 c0.6517283931682188,-0.4770280857955198 0.6517283931682188,-1.2505953977801862 0,-1.7276234835757056 c-0.6517283931682188,-0.4770280857955198 -1.7085965237028518,-0.4770280857955198 -2.3603249168710705,0 L0.4890014470879933,5.900397627397215 c0,0 0,0 0,0 c-0.0776065820289941,0.05680360048525398 -0.1468683702914297,0.11971511500118054 -0.2082026044756346,0.18659677363704383 c-0.025034381299675498,0.027180217436492488 -0.041723968832792516,0.05710899618678754 -0.06342043262584458,0.08520540072788095 c-0.03129297662459436,0.04122841970703915 -0.06508939137915626,0.08123525660794388 -0.09012377267883188,0.12521223762878553 c-0.02002750503974042,0.03573129707943396 -0.030875736936266454,0.07268417696500239 -0.04631360540439971,0.10933166114903711 c-0.01668958753311699,0.039396045497837394 -0.03713433226118535,0.0778759038910739 -0.048399803846039334,0.11910432359811313 c-0.01668958753311699,0.062300723112859134 -0.022530943169707957,0.12551763333031915 -0.02586886067633135,0.18873454354777924 c-0.0008344793766558513,0.016796763584349277 -0.006675835013246805,0.03237194436256406 -0.006675835013246805,0.04947410364844702 c0,0.01893453349508464 0.006675835013246805,0.036647484184034775 0.007510314389902656,0.05527662197758583 c0.003755157194951326,0.061079140306724636 0.008762033454886436,0.12215828061344926 0.025451620988003444,0.1826266295171067 c0.011682711273181899,0.04367158531930815 0.03296193537790606,0.08398381792174632 0.05090324197600683,0.12582302903185266 c0.014603389091477376,0.03420431857176582 0.0246171416113476,0.06901942854659888 0.043392927586104225,0.10230756001376373 c0.026703340052987214,0.047336333737711615 0.0625859532491888,0.09131331475855342 0.09721684738040659,0.13529029577939522 c0.01919302566308455,0.02473705182422349 0.03379641475456194,0.051001082156115096 0.05549287854761403,0.0751273425772714 c0.06175147387253289,0.06810324144199807 0.1322649811999523,0.13132015165945787 0.21112328229393001,0.18873454354777924 l7.570396905021866,5.541099608626056 c0.3258641965841094,0.23851404289775976 0.7531176374319045,0.3579237621974067 1.1803710782796992,0.3579237621974067 s0.8540896420072621,-0.11940971929964668 1.1803710782796992,-0.3579237621974067 c0.6517283931682188,-0.4770280857955198 0.6517283931682188,-1.2505953977801862 0,-1.7273180878741723 L5.698656195550463,7.9859448731703315 h17.666345643492665 c0.9216824715163859,0 1.6689587533116996,-0.5469637014467188 1.6689587533116996,-1.2215828061344922 S24.286684310559515,5.542779260901347 23.36500183904313,5.542779260901347 z" id="svg_1" class="" stroke="#ffffff" stroke-opacity="1" fill="#ffffff" fill-opacity="1"/></g></svg>