<svg xmlns="http://www.w3.org/2000/svg" xmlns:xlink="http://www.w3.org/1999/xlink" version="1.1" enable-background="new 0 0 100 100" xml:space="preserve" width="89" height="72" style=""><rect id="backgroundrect" width="100%" height="100%" x="0" y="0" fill="none" stroke="none" class="" style=""/><g class="currentLayer" style=""><title>Layer 1</title><path d="M84.312,72 H5.351000000000001 C2.2009999999999996,72 0,70.369 0,68.033 V17.621 c0,-2.427 2.146,-4.188 5.101,-4.188 l15.259,0.056000000000000015 c0.09200000000000005,-0.0010000000000000005 2.3930000000000002,-0.06300000000000003 3.708,-2.9290000000000003 c0.3940000000000002,-0.8580000000000002 1.149,-2.333 1.816,-3.6340000000000003 c0.4270000000000001,-0.8340000000000002 0.8260000000000002,-1.612 1.084,-2.14 C29.287999999999997,0.054000000000000284 33.176,0 33.34,0 h22.745 c0.21600000000000005,0.004000000000000002 4.882,0.14100000000000001 6.8260000000000005,4.844 c0.4240000000000001,1.026 1.326,3.033 1.923,4.36 l0.2970000000000001,0.6610000000000003 c1.3960000000000001,3.115 3.463,3.294 3.55,3.301 l15.542,-0.11700000000000003 c2.815,0 4.777,1.7440000000000002 4.777,4.24 v50.744 C89,70.48 87.204,72 84.312,72 zM5.098000000000001,15.433 C3.5600000000000005,15.433 2,16.185 2,17.621 v50.412 C2,69.589 4.192,70 5.351000000000001,70 h78.961 C86.096,70 87,69.338 87,68.033 V17.29 c0,-1.653 -1.492,-2.24 -2.77,-2.24 l-15.595,0.11500000000000003 c-0.18100000000000005,-0.006000000000000004 -3.4,-0.17600000000000005 -5.33,-4.481 l-0.2960000000000001,-0.6590000000000003 c-0.6020000000000002,-1.339 -1.512,-3.362 -1.947,-4.417 c-1.433,-3.467 -4.855,-3.607 -5,-3.607 H33.34 c-0.10700000000000003,0 -2.825,0.09300000000000005 -4.5760000000000005,3.6660000000000004 c-0.263,0.536 -0.6670000000000003,1.3250000000000002 -1.1,2.171 c-0.6570000000000003,1.284 -1.4020000000000001,2.738 -1.779,3.557 c-1.8570000000000002,4.048 -5.378,4.095 -5.527,4.095 L5.098000000000001,15.433 z" id="svg_1" class="" stroke-opacity="1" stroke="#09c920" fill-opacity="1" fill="#09c920"/><path d="M74,24 h-1 c-0.8290000000000002,0 -1.5,-0.6710000000000004 -1.5,-1.5 S72.171,21 73,21 h1 c0.8290000000000002,0 1.5,0.6710000000000004 1.5,1.5 S74.829,24 74,24 z" id="svg_2" class="" fill-opacity="1" fill="#09c920" stroke-opacity="1" stroke="#09c920"/><path d="M81,24 h-3 c-0.8290000000000002,0 -1.5,-0.6710000000000004 -1.5,-1.5 S77.171,21 78,21 h3 c0.8290000000000002,0 1.5,0.6710000000000004 1.5,1.5 S81.829,24 81,24 z" id="svg_3" class="" stroke-opacity="1" stroke="#09c920" fill-opacity="1" fill="#09c920"/><path d="M25,31 H2 c-0.552,0 -1,-0.4480000000000001 -1,-1 s0.4480000000000001,-1 1,-1 h23 c0.552,0 1,0.4480000000000001 1,1 S25.552,31 25,31 z" id="svg_4" class="" fill-opacity="1" fill="#09c920"/><path d="M88,31 H64 c-0.552,0 -1,-0.4480000000000001 -1,-1 s0.4480000000000001,-1 1,-1 h24 c0.552,0 1,0.4480000000000001 1,1 S88.552,31 88,31 z" id="svg_5" class="" stroke-opacity="1" stroke="#09c920" fill-opacity="1" fill="#09c920"/><path d="M87,57 H63 c-0.552,0 -1,-0.4480000000000001 -1,-1 s0.4480000000000001,-1 1,-1 h24 c0.552,0 1,0.4480000000000001 1,1 S87.552,57 87,57 z" id="svg_6" class="" stroke-opacity="1" stroke="#09c920" fill-opacity="1" fill="#09c920"/><path d="M26.961,57 H2.0389999999999997 C1.4649999999999999,57 1,56.55200000000001 1,56 s0.465,-1 1.039,-1 h24.923000000000002 C27.534999999999997,55 28,55.44799999999999 28,56 S27.534999999999997,57 26.961,57 z" id="svg_7" class="" fill-opacity="1" fill="#09c920" stroke-opacity="1" stroke="#09c920"/><path d="M87,60 H74 c-0.552,0 -1,-0.4480000000000001 -1,-1 s0.4480000000000001,-1 1,-1 h13 c0.552,0 1,0.4480000000000001 1,1 S87.552,60 87,60 z" id="svg_8" class="" fill-opacity="1" fill="#09c920" stroke-opacity="1" stroke="#09c920"/><path d="M55,10 H34 c-1.104,0 -2,-0.8960000000000002 -2,-2 s0.8960000000000002,-2 2,-2 h21 c1.104,0 2,0.8960000000000002 2,2 S56.104,10 55,10 z" id="svg_9" class="" stroke-opacity="1" stroke="#09c920" fill-opacity="1" fill="#09c920"/><path d="M16,15 h-8 c-1.104,0 -2,-0.8960000000000002 -2,-2 s0.8960000000000002,-2 2,-2 h8 c1.104,0 2,0.8960000000000002 2,2 S17.104,15 16,15 z" id="svg_10" class="" stroke-opacity="1" stroke="#09c920" fill-opacity="1" fill="#09c920"/><path d="M44.915,65.567 c-12.862,0 -23.326,-10.464 -23.326,-23.326 c0,-12.862 10.464,-23.326 23.326,-23.326 c12.862,0 23.326,10.464 23.326,23.326 C68.241,55.104 57.777,65.567 44.915,65.567 zM44.915,21.240000000000002 c-11.58,0 -21.001,9.421 -21.001,21.001 c0,11.581 9.421,21.002 21.001,21.002 c11.581,0 21.002,-9.421 21.002,-21.002 C65.917,30.661 56.495,21.240000000000002 44.915,21.240000000000002 z" id="svg_11" class="" fill-opacity="1" fill="#09c920" stroke-opacity="1" stroke="#09c920"/><path d="M44.915,59.739999999999995 c-9.649000000000001,0 -17.499,-7.85 -17.499,-17.499 s7.85,-17.499 17.499,-17.499 s17.499,7.85 17.499,17.499 S54.563,59.739999999999995 44.915,59.739999999999995 zM44.915,27.066000000000003 c-8.367,0 -15.175,6.808 -15.175,15.175 s6.808,15.175 15.175,15.175 s15.175,-6.808 15.175,-15.175 S53.282,27.066000000000003 44.915,27.066000000000003 z" id="svg_12" class="" stroke-opacity="1" stroke="#09c920" fill-opacity="1" fill="#09c920"/><circle cx="50.47600173950195" cy="36.01599884033203" r="1.1619999408721924" id="svg_13" class="" fill-opacity="1" fill="#09c920" stroke-opacity="1" stroke="#09c920"/><circle cx="52.13600158691406" cy="38.3390007019043" r="0.7260000109672546" id="svg_14" class="" stroke-opacity="1" stroke="#09c920" fill-opacity="1" fill="#09c920"/></g></svg>