<svg xmlns="http://www.w3.org/2000/svg" width="74" height="65"><rect id="backgroundrect" width="100%" height="100%" x="0" y="0" fill="none" stroke="none" class="" style=""/><g class="currentLayer" style=""><title>Layer 1</title><g id="svg_1" class="" fill-opacity="1" fill="#09c920" stroke-opacity="1" stroke="#09c920"><path d="M29.591846653872153,40.018429970616126 a1.2330963611602783,1.08158540725708 0 0 1 2.4661927223205566,0 v1.08158540725708 h2.4661927223205566 V40.018429970616126 a3.699289083480835,3.2447562217712402 0 0 0 -7.39857816696167,0 v1.08158540725708 h2.4661927223205566 z" id="svg_2" fill="#09c920" stroke="#09c920"/><path d="M41.922810265474936,40.018429970616126 a1.2330963611602783,1.08158540725708 0 0 1 2.4661927223205566,0 v1.08158540725708 h2.4661927223205566 V40.018429970616126 a3.699289083480835,3.2447562217712402 0 0 0 -7.39857816696167,0 v1.08158540725708 h2.4661927223205566 z" id="svg_3" fill="#09c920" stroke="#09c920"/><path d="M32.05803937619271,45.426357006901526 a4.932385444641113,4.32634162902832 0 0 0 9.864770889282227,0 V43.263186192387366 H32.05803937619271 zm7.39857816696167,0 a2.4661927223205566,2.16317081451416 0 0 1 -4.932385444641113,0 z" id="svg_4" fill="#09c920" stroke="#09c920"/><path d="M73.889600332194,13.646132985466743 l0,0 c0,-0.010815854072570805 -0.01356405997276307,-0.01838695192337037 -0.019729541778564456,-0.029202805995941168 a1.1985696630477904,1.0513010158538818 0 0 0 -0.21825805592536934,-0.2844569621086122 a1.2158330121040344,1.066443211555481 0 0 0 -0.0937153234481812,-0.07462939310073853 a1.2330963611602783,1.08158540725708 0 0 0 -0.25648404312133793,-0.15142195701599126 a1.0431995215415955,0.91502125453949 0 0 0 -0.12330963611602784,-0.04975292873382572 A1.2330963611602783,1.08158540725708 0 0 0 72.7502192944819,12.978794789189124 H52.29808304827752 L37.86222394817414,0.3166744264304877 a1.2330963611602783,1.08158540725708 0 0 0 -1.743598254680634,0 L21.682766593390127,12.978794789189124 H1.2306303471857518 a1.2330963611602783,1.08158540725708 0 0 0 -0.43035063004493734,0.07571097850799562 a1.0247030761241913,0.8987974734306339 0 0 0 -0.1171441543102265,0.04975292873382572 a1.488347307920456,1.305473586559296 0 0 0 -0.3514324629306794,0.2260513501167298 a1.1899379885196686,1.0437299180030823 0 0 0 -0.21949115228652963,0.2855385475158692 c0,0.009734268665313729 -0.01356405997276307,0.017305366516113297 -0.01849644541740418,0.02812122058868409 l0,0 a1.2330963611602783,1.08158540725708 0 0 0 -0.08508364892005926,0.3753101363182069 c0,0.014060610294342045 -0.008631674528121951,0.02487646436691285 -0.008631674528121951,0.038937074661254886 V63.81330893027189 c0,0.014060610294342045 0.008631674528121951,0.02487646436691285 0.008631674528121951,0.038937074661254886 a1.2330963611602783,1.08158540725708 0 0 0 0.08508364892005926,0.3753101363182069 l0,0 c0,0.010815854072570805 0.01356405997276307,0.01838695192337037 0.01849644541740418,0.02812122058868409 a1.0838917014598848,0.9507135729789736 0 0 0 0.31320647573471083,0.3601679406166078 a1.2602244811058045,1.105380286216736 0 0 0 0.2577171394824982,0.15250354242324834 a1.2737885410785674,1.1172777256965636 0 0 0 0.1171441543102265,0.04867134332656863 A1.2330963611602783,1.08158540725708 0 0 0 1.2306303471857518,64.89489433752897 H72.7502192944819 a1.2330963611602783,1.08158540725708 0 0 0 0.43035063004493734,-0.07571097850799562 a1.138147941350937,0.9983033308982848 0 0 0 0.12330963611602784,-0.04867134332656863 a1.2602244811058045,1.105380286216736 0 0 0 0.2577171394824982,-0.15250354242324834 a1.2158330121040344,1.066443211555481 0 0 0 0.0937153234481812,-0.07462939310073853 a1.2035020484924317,1.05562735748291 0 0 0 0.21949115228652963,-0.2844569621086122 c0,-0.010815854072570805 0.01356405997276307,-0.01838695192337037 0.01849644541740418,-0.029202805995941168 l0,0 a1.2072013375759125,1.0588721137046815 0 0 0 0.08508364892005926,-0.3753101363182069 c0,-0.014060610294342045 0.008631674528121951,-0.02487646436691285 0.008631674528121951,-0.038937074661254886 V14.060380196446204 c0,-0.014060610294342045 -0.008631674528121951,-0.02487646436691285 -0.008631674528121951,-0.038937074661254886 A1.2072013375759125,1.0588721137046815 0 0 0 73.889600332194,13.646132985466743 zM30.948252651148458,56.24221107947233 a6.108759373188018,5.358174107551575 0 0 0 1.1406141340732574,2.16317081451416 H17.39529054563584 A8.661268840789795,7.59705590057373 0 0 1 23.42636484807076,56.24221107947233 zM24.65946120923104,36.773673748844885 V32.447332119816565 H49.321388432436606 v8.65268325805664 a12.330963611602783,10.8158540725708 0 0 1 -24.661927223205566,0 zm25.895023584365845,-6.4895124435424805 H24.65946120923104 V29.202575898045325 a6.172880383968353,5.414416548728943 0 0 1 6.1654818058013925,-5.4079270362854 H56.719966599398276 v1.08158540725708 A6.172880383968353,5.414416548728943 0 0 1 50.554484793596885,30.284161305302405 zm1.2330963611602783,8.65268325805664 h1.2330963611602783 a1.2330963611602783,1.08158540725708 0 0 1 0,2.16317081451416 H51.78758115475716 zM33.29113573735299,55.16062567221525 v-1.514219570159912 a14.291586825847626,12.535574870109558 0 0 0 7.39857816696167,0 V55.16062567221525 a3.699289083480835,3.2447562217712402 0 0 1 -7.39857816696167,0 zm9.741461253166198,1.08158540725708 H50.554484793596885 a8.661268840789795,7.59705590057373 0 0 1 6.031074302434921,2.16317081451416 H41.890749760084766 A6.108759373188018,5.358174107551575 0 0 0 43.03259699051919,56.24221107947233 zM59.75338364785256,58.40538189398649 A11.124995370388032,9.758063544273377 0 0 0 50.554484793596885,54.07904026495817 H43.155906626635215 V52.889296316975376 A14.818118972063063,12.997411839008329 0 0 0 51.564390713387155,43.263186192387366 H53.02067751591744 a3.699289083480835,3.2447562217712402 0 0 0 0,-6.4895124435424805 H51.78758115475716 V32.360805287236 A8.63907310628891,7.5775873632431034 0 0 0 59.18615932171883,24.876234269017004 V21.631478047245764 H30.82494301503243 a8.642772395372392,7.5808321194648745 0 0 0 -8.631674528121948,7.5710978507995605 v7.5710978507995605 H20.960172125750205 a3.699289083480835,3.2447562217712402 0 0 0 0,6.4895124435424805 h1.4562868025302889 A14.818118972063063,12.997411839008329 0 0 0 30.82494301503243,52.889296316975376 V54.07904026495817 H23.42636484807076 a11.124995370388032,9.758063544273377 0 0 0 -9.198898854255676,4.32634162902832 H7.396112152987143 V19.468307232731604 H66.5847374886805 V58.40538189398649 zM22.193268486910483,41.100015377873206 H20.960172125750205 a1.2330963611602783,1.08158540725708 0 0 1 0,-2.16317081451416 h1.2330963611602783 zM4.929919430666587,59.03919094263913 l-2.4661927223205566,2.16317081451416 V16.671327369564796 l2.4661927223205566,2.16317081451416 zM69.05093021100106,18.834498184078956 l2.4661927223205566,-2.16317081451416 V61.20236175715329 l-2.4661927223205566,-2.16317081451416 zm-32.060505390167236,-16.2237811088562 L48.81088653891625,12.978794789189124 H25.169963102751396 zM69.77352467864098,15.141965603703284 l-2.4661927223205566,2.16317081451416 H6.673517685347219 l-2.4661927223205566,-2.16317081451416 zM4.207324963026664,62.73172352301481 l2.4661927223205566,-2.16317081451416 H67.30733195632043 l2.4661927223205566,2.16317081451416 z" id="svg_5" fill="#09c920" stroke="#09c920"/></g></g></svg>