<svg xmlns="http://www.w3.org/2000/svg" xmlns:xlink="http://www.w3.org/1999/xlink" version="1.1" enable-background="new 0 0 100 100" xml:space="preserve" width="64" height="42"><rect id="backgroundrect" width="100%" height="100%" x="0" y="0" fill="none" stroke="none" class="" style=""/><g class="currentLayer" style=""><title>Layer 1</title><path d="M62.66445163889303,5.928208368352443 c-0.618715599536896,-0.3908063161373139 -1.37521240401268,-0.36876836597919477 -1.9757304859161375,0.049952687025070226 l-10.470071752667426,7.316599452495575 v-4.635315516591072 c0,-4.774889200925827 -3.4380310100317,-8.659445215463638 -7.6624547463655475,-8.659445215463638 H7.661154769138241 c-4.224423736333847,0 -7.6611549236774446,3.8845560145378113 -7.6611549236774446,8.659445215463638 v24.287290270924565 c0,4.774889200925827 3.4367311873435975,8.65797601878643 7.6611549236774446,8.65797601878643 h34.89633970749378 c4.224423736333847,0 7.6624547463655475,-3.8830868178606037 7.6624547463655475,-8.65797601878643 v-4.6367847132682805 l10.470071752667426,7.316599452495575 c0.3132572678327562,0.21744110822677623 0.6694086843729019,0.3305692523717882 1.025560100913048,0.3305692523717882 c0.3262554947137833,0 0.6538108121156695,-0.09402858734130864 0.9488705623149877,-0.27767817199230216 c0.6174157768487932,-0.3908063161373139 1.0008634698390961,-1.1283430480957035 1.0008634698390961,-1.9261168438196181 V7.852856015494857 C63.66401528604403,7.053613023093729 63.280567593053725,6.31754548781255 62.66445163889303,5.928208368352443 zM46.320481158689404,32.948204458883794 c0,2.344837896823883 -1.6884696718454362,4.25038598716259 -3.7629866820573805,4.25038598716259 H7.661154769138241 c-2.074517010211945,0 -3.761686859369278,-1.9055480903387072 -3.761686859369278,-4.25038598716259 V8.659444991282019 c0,-2.344837896823883 1.6871698491573337,-4.251855183839798 3.761686859369278,-4.251855183839798 h34.89633970749378 c2.074517010211945,0 3.7629866820573805,1.9070172870159148 3.7629866820573805,4.251855183839798 V32.948204458883794 zM59.76454722173586,29.79971597962716 l-9.545897821426392,-6.6716221112012875 v-4.65147668004036 l9.545897821426392,-6.6716221112012875 V29.79971597962716 z" id="svg_1" class="" fill-opacity="1" fill="#09c920" stroke-opacity="1" stroke="#09c920"/></g></svg>